<svg class="book-illustration" viewBox="0 0 700 360" role="img" aria-label="原創旅行氣氛插畫" xmlns="http://www.w3.org/2000/svg"><g fill="none" stroke="#3E3A39" stroke-width="3" stroke-linecap="round" stroke-linejoin="round"><rect x="1.5" y="1.5" width="697" height="357" rx="40" fill="#FFFCF6" stroke="none"/><g class="art-cloud" transform="translate(80 50)"><path d="M0 30Q-7 5 17 8Q26-13 47 4Q70-5 73 19Q95 18 89 36H5Z" fill="#FFFCF6"/></g><g class="art-cloud" transform="translate(500 45)"><path d="M0 30Q-7 5 17 8Q26-13 47 4Q70-5 73 19Q95 18 89 36H5Z" fill="#FFFCF6"/></g><circle cx="608" cy="137" r="26" fill="#F6D27A"/><g transform="translate(349 138)"><g class="art-float"><path d="M-81 19L-36 0L-27-38L-11-43L-12-6L44-18Q73-23 85-10Q69 10 48 12L-7 19L-20 58L-36 61L-29 23L-73 39Z" fill="#A8D3E6"/><circle cx="42" cy="-1" r="3" fill="#3E3A39" stroke="none"/></g></g><g transform="translate(258 232)"><g class="art-bob"><rect x="0" y="0" width="200" height="90" rx="24" fill="#F6D27A"/><path d="M2 62H198"/><rect x="15" y="17" width="38" height="30" rx="8" fill="#A8D3E6"/><rect x="65" y="17" width="38" height="30" rx="8" fill="#A8D3E6"/><rect x="118" y="16" width="63" height="53" rx="12" fill="#FFFCF6"/><circle cx="36" cy="90" r="12" fill="#3E3A39"/><circle cx="165" cy="90" r="12" fill="#3E3A39"/><path d="M204 70h15"/></g></g><path d="M49 299Q157 267 254 302T647 296V337H49Z" fill="#B9DAA5"/><rect x="107" y="210" width="61" height="83" rx="15" fill="#F2A497"/><path d="M120 209v-15h35v15M125 231v35M152 231v35"/><circle cx="121" cy="294" r="5" fill="#3E3A39"/><circle cx="154" cy="294" r="5" fill="#3E3A39"/></g></svg>
