<svg class="book-illustration" viewBox="0 0 700 360" role="img" aria-label="原創旅行氣氛插畫" xmlns="http://www.w3.org/2000/svg"><g fill="none" stroke="#3E3A39" stroke-width="3" stroke-linecap="round" stroke-linejoin="round"><rect x="1.5" y="1.5" width="697" height="357" rx="40" fill="#FFFCF6" stroke="none"/><g class="art-cloud" transform="translate(80 50)"><path d="M0 30Q-7 5 17 8Q26-13 47 4Q70-5 73 19Q95 18 89 36H5Z" fill="#FFFCF6"/></g><g class="art-cloud" transform="translate(500 45)"><path d="M0 30Q-7 5 17 8Q26-13 47 4Q70-5 73 19Q95 18 89 36H5Z" fill="#FFFCF6"/></g><circle cx="608" cy="137" r="26" fill="#F6D27A"/><path d="M202 305V161H447V305Z" fill="#FFFCF6"/><path d="M174 166L326 95L478 166ZM216 99L326 49L436 99Z" fill="#B9DAA5"/><path d="M251 100v30h151v-30" fill="#FFFCF6"/><rect x="282" y="243" width="83" height="62" rx="11" fill="#F6D27A"/><path d="M249 191h25M307 191h25M366 191h25"/><g transform="translate(576 197) scale(1)"><path d="M0 35V95"/><path d="M-35 20Q-48-8-20-21Q-14-50 14-42Q42-42 43-15Q65 8 39 32Q20 53 0 34Q-23 52-35 20Z" fill="#B9DAA5"/></g><g transform="translate(101 237) scale(0.75)"><path d="M0 35V95"/><path d="M-35 20Q-48-8-20-21Q-14-50 14-42Q42-42 43-15Q65 8 39 32Q20 53 0 34Q-23 52-35 20Z" fill="#B9DAA5"/></g></g></svg>
