<svg class="book-illustration" viewBox="0 0 700 360" role="img" aria-label="原創旅行氣氛插畫" xmlns="http://www.w3.org/2000/svg"><g fill="none" stroke="#3E3A39" stroke-width="3" stroke-linecap="round" stroke-linejoin="round"><rect x="1.5" y="1.5" width="697" height="357" rx="40" fill="#FFFCF6" stroke="none"/><g class="art-cloud" transform="translate(80 50)"><path d="M0 30Q-7 5 17 8Q26-13 47 4Q70-5 73 19Q95 18 89 36H5Z" fill="#FFFCF6"/></g><g class="art-cloud" transform="translate(500 45)"><path d="M0 30Q-7 5 17 8Q26-13 47 4Q70-5 73 19Q95 18 89 36H5Z" fill="#FFFCF6"/></g><circle cx="608" cy="137" r="26" fill="#F6D27A"/><g transform="translate(104 156)"><rect width="182" height="152" rx="17" fill="#F2A497"/><path d="M0 40H182M0 88H182"/><rect x="20" y="13" width="42" height="17" rx="5" fill="#FFFCF6"/><rect x="77" y="13" width="42" height="17" rx="5" fill="#FFFCF6"/><rect x="134" y="13" width="29" height="17" rx="5" fill="#FFFCF6"/><rect x="18" y="52" width="63" height="24" rx="5" fill="#A8D3E6"/><rect x="99" y="52" width="64" height="24" rx="5" fill="#A8D3E6"/><rect x="74" y="105" width="38" height="47" rx="8" fill="#FFFCF6"/></g><g transform="translate(331 131)"><rect width="182" height="152" rx="17" fill="#F2A497"/><path d="M0 40H182M0 88H182"/><rect x="20" y="13" width="42" height="17" rx="5" fill="#FFFCF6"/><rect x="77" y="13" width="42" height="17" rx="5" fill="#FFFCF6"/><rect x="134" y="13" width="29" height="17" rx="5" fill="#FFFCF6"/><rect x="18" y="52" width="63" height="24" rx="5" fill="#A8D3E6"/><rect x="99" y="52" width="64" height="24" rx="5" fill="#A8D3E6"/><rect x="74" y="105" width="38" height="47" rx="8" fill="#FFFCF6"/></g><g transform="translate(584 225) scale(0.95)"><path d="M0 35V95"/><path d="M-35 20Q-48-8-20-21Q-14-50 14-42Q42-42 43-15Q65 8 39 32Q20 53 0 34Q-23 52-35 20Z" fill="#B9DAA5"/></g><path d="M58 314H656"/><path d="M74 263q-25-48-43 0Z" fill="#A8D3E6"/></g></svg>
