<svg xmlns="http://www.w3.org/2000/svg" width="1100" height="1930" viewBox="0 0 1100 1930" role="img" aria-labelledby="title desc"><title id="title">12/21 兩組出發，一起走進聖誕</title><desc id="desc">A 柴又／B 豐洲 → 神谷町會合 → 東京塔與草坪 → 芝公園市集。 北朝上，各圖獨立比例尺，連線為移動示意。待確認地點不標為確定行程。</desc><defs><pattern id="paper" width="24" height="24" patternUnits="userSpaceOnUse"><rect width="24" height="24" fill="#fff9ed"/><path d="M0 5h24M0 18h24" stroke="#d4c8b0" stroke-opacity=".16"/></pattern><marker id="walk" markerWidth="8" markerHeight="8" refX="7" refY="4" orient="auto"><path d="M0 0L8 4L0 8" fill="none" stroke="#a52d3c" stroke-width="2"/></marker><marker id="ride" markerWidth="8" markerHeight="8" refX="7" refY="4" orient="auto"><path d="M0 0L8 4L0 8" fill="none" stroke="#245844" stroke-width="2"/></marker><marker id="a" markerWidth="8" markerHeight="8" refX="7" refY="4" orient="auto"><path d="M0 0L8 4L0 8" fill="none" stroke="#993b39" stroke-width="2"/></marker><marker id="b" markerWidth="8" markerHeight="8" refX="7" refY="4" orient="auto"><path d="M0 0L8 4L0 8" fill="none" stroke="#246f91" stroke-width="2"/></marker><marker id="pending" markerWidth="8" markerHeight="8" refX="7" refY="4" orient="auto"><path d="M0 0L8 4L0 8" fill="none" stroke="#967039" stroke-width="2"/></marker></defs><style>text{font-family:'Noto Sans CJK TC','Noto Sans TC',system-ui,sans-serif;fill:#234537}.label{font-size:34px;font-weight:800;paint-order:stroke;stroke:#fff9ed;stroke-width:9;stroke-linejoin:round}.sub{font-size:28px;paint-order:stroke;stroke:#fff9ed;stroke-width:7}.tiny{font-size:23px}.lead{stroke:#7a816a;stroke-width:2;fill:none}.num{fill:white;font-size:25px;font-weight:900;text-anchor:middle}</style><rect width="1100" height="1930" fill="url(#paper)"/><path d="M23 30L1073 25L1079 1898L27 1906Z" fill="none" stroke="#214f3f" stroke-width="3"/><text x="55" y="80" class="date" font-size="30">12/21 · MON / 月曜日</text><text x="55" y="140" class="title" font-size="46">兩組出發，一起走進聖誕</text><path d="M1009 57l-23 35h13l-24 32h70l-24-32h12Z M1009 124v20" fill="#dbe4cd" stroke="#41634b" stroke-width="3"/><text x="55" y="208" class="panel-title" font-size="34">上午：東北的柴又／南邊的豐洲</text><path d="M55 237L1045 235L1043 885L57 887Z" fill="#f0f0df" stroke="#b9bea6" stroke-width="2"/><path d="M63 305H1037" stroke="#bdc7b1" stroke-opacity=".18" stroke-width="1"/><path d="M63 395H1037" stroke="#bdc7b1" stroke-opacity=".18" stroke-width="1"/><path d="M63 485H1037" stroke="#bdc7b1" stroke-opacity=".18" stroke-width="1"/><path d="M63 575H1037" stroke="#bdc7b1" stroke-opacity=".18" stroke-width="1"/><path d="M63 665H1037" stroke="#bdc7b1" stroke-opacity=".18" stroke-width="1"/><path d="M63 755H1037" stroke="#bdc7b1" stroke-opacity=".18" stroke-width="1"/><path d="M63 845H1037" stroke="#bdc7b1" stroke-opacity=".18" stroke-width="1"/><path d="M483.23 632.22L733.28 385.13" fill="none" stroke="#993b39" stroke-width="6" stroke-linecap="round" stroke-dasharray="11 11" marker-end="url(#a)"/><path d="M465.16 676.49L466.77 773.70" fill="none" stroke="#246f91" stroke-width="6" stroke-linecap="round" stroke-dasharray="11 11" marker-end="url(#b)"/><path d="M735.19 381.32L345.16 728.33" fill="none" stroke="#993b39" stroke-width="6" stroke-linecap="round" stroke-dasharray="11 11" marker-end="url(#a)"/><path d="M442.98 794.39L350.76 759.01" fill="none" stroke="#246f91" stroke-width="6" stroke-linecap="round" stroke-dasharray="11 11" marker-end="url(#b)"/><path d="M464.74 650.49L465 543" class="lead"/><circle cx="464.74" cy="650.49" r="19" fill="#a52d3c" stroke="#fff9ed" stroke-width="5"/><text x="464.74" y="659.49" class="num">起</text><text x="465" y="555" class="label">浜町出發</text><path d="M754.62 364.04L650 288" class="lead"/><circle cx="754.62" cy="364.04" r="19" fill="#993b39" stroke="#fff9ed" stroke-width="5"/><text x="754.62" y="373.04" class="num">A</text><text x="650" y="300" class="label">08:30 柴又老街</text><text x="650" y="339" class="sub">高木屋／帝釋天周邊</text><path d="M467.26 803.70L590 758" class="lead"/><circle cx="467.26" cy="803.70" r="19" fill="#246f91" stroke="#fff9ed" stroke-width="5"/><text x="467.26" y="812.7" class="num">B</text><text x="590" y="770" class="label">09:30 teamLab 豐洲</text><text x="590" y="809" class="sub">壽司大候位另確認</text><path d="M322.75 748.27L90 723" class="lead"/><circle cx="322.75" cy="748.27" r="19" fill="#a52d3c" stroke="#fff9ed" stroke-width="5"/><text x="322.75" y="757.27" class="num">合</text><text x="90" y="735" class="label">13:30 神谷町</text><text x="90" y="774" class="sub">兩組會合</text><path d="M80 850h179.66m-179.66-7v14m179.66-14v14" stroke="#234537" stroke-width="3" fill="none"/><text x="274.6622349982026" y="860" class="tiny">5 km</text><path d="M1003 295v-32l-8 12m8-12l8 12" stroke="#234537" stroke-width="3" fill="none"/><text x="973" y="325" class="tiny">北 N</text><text x="55" y="953" class="panel-title" font-size="34">午後放大：會合後一起走</text><path d="M55 982L1045 980L1043 1525L57 1527Z" fill="#f0f0df" stroke="#b9bea6" stroke-width="2"/><path d="M63 1050H1037" stroke="#bdc7b1" stroke-opacity=".18" stroke-width="1"/><path d="M63 1140H1037" stroke="#bdc7b1" stroke-opacity=".18" stroke-width="1"/><path d="M63 1230H1037" stroke="#bdc7b1" stroke-opacity=".18" stroke-width="1"/><path d="M63 1320H1037" stroke="#bdc7b1" stroke-opacity=".18" stroke-width="1"/><path d="M63 1410H1037" stroke="#bdc7b1" stroke-opacity=".18" stroke-width="1"/><path d="M63 1500H1037" stroke="#bdc7b1" stroke-opacity=".18" stroke-width="1"/><path d="M445.10 1129.28L453.20 1238.51" fill="none" stroke="#a52d3c" stroke-width="6" stroke-linecap="round" marker-end="url(#walk)"/><path d="M474.19 1286.42L543.74 1353.08" fill="none" stroke="#a52d3c" stroke-width="6" stroke-linecap="round" marker-end="url(#walk)"/><path d="M574.69 1349.55L625.88 1215.72" fill="none" stroke="#967039" stroke-width="6" stroke-linecap="round" stroke-dasharray="11 11" marker-end="url(#pending)"/><path d="M443.17 1103.35L95 1073" class="lead"/><circle cx="443.17" cy="1103.35" r="19" fill="#a52d3c" stroke="#fff9ed" stroke-width="5"/><text x="443.17" y="1112.35" class="num">合</text><text x="95" y="1085" class="label">神谷町站・13:30</text><text x="95" y="1124" class="sub">集合在2號出口</text><path d="M455.42 1268.42L90 1238" class="lead"/><circle cx="455.42" cy="1268.42" r="19" fill="#a52d3c" stroke="#fff9ed" stroke-width="5"/><text x="455.42" y="1277.42" class="num">1</text><text x="90" y="1250" class="label">東京塔・13:50</text><text x="90" y="1289" class="sub">外觀欣賞</text><path d="M565.40 1373.83L650 1418" class="lead"/><circle cx="565.40" cy="1373.83" r="19" fill="#a52d3c" stroke="#fff9ed" stroke-width="5"/><text x="565.4" y="1382.83" class="num">2</text><text x="650" y="1430" class="label">草坪・15:00</text><text x="650" y="1469" class="sub">依原表座標</text><path d="M636.60 1187.70L650 1103" class="lead"/><circle cx="636.60" cy="1187.70" r="19" fill="#a52d3c" stroke="#fff9ed" stroke-width="5"/><text x="636.6" y="1196.7" class="num">3</text><text x="650" y="1115" class="label">市集・18:00</text><text x="650" y="1154" class="sub">御成門駅前周邊</text><path d="M80 1490h102.18m-102.18-7v14m102.18-14v14" stroke="#234537" stroke-width="3" fill="none"/><text x="197.18289615522428" y="1500" class="tiny">300 m</text><path d="M1003 1040v-32l-8 12m8-12l8 12" stroke="#234537" stroke-width="3" fill="none"/><text x="973" y="1070" class="tiny">北 N</text><text x="65" y="1590" class="sub">實線：步行區段　／　虛線：跨區或候選移動</text><text x="65" y="1640" class="sub">位置等比例・各圖另附比例尺・非逐街導航</text><text x="65" y="1690" class="tiny">A／B 是同時分流，不是先去柴又再去豐洲。</text><text x="65" y="1720" class="tiny">16:00 往三田、17:30 用餐；18:00 市集在御成門方向，須再往北。</text><text x="65" y="1750" class="tiny">永井坂與龍翔軒未定位，不畫出假店址。市集只標御成門駅前會場周邊。</text></svg>